# xmcd
#
# Track frame offsets:
#	150
#	42885
#	64053
#	99042
#	153693
#	205143
#	258291
#
# Disc length: 3621 seconds
#
# Revision: 1
# Processed by: cddbd v1.5.2PL0 Copyright (c) Steve Scherf et al.
# Submitted via: audiograbber 1.83.01
#
DISCID=540e2307
DTITLE=Grateful Dead - 80-04-01 Capitol Theatre, Passaic NJ
DYEAR=1900
DGENRE=
TTITLE0=Feel Like A Stranger
TTITLE1=China Cat Sunflower
TTITLE2=I Know You Rider
TTITLE3=Estimated Prophet
TTITLE4=He's Gone
TTITLE5=The Other One
TTITLE6=Drums
EXTD=
EXTT0=
EXTT1=
EXTT2=
EXTT3=
EXTT4=
EXTT5=
EXTT6=
PLAYORDER=
